<?xml version="1.0" standalone="no"?>
<!DOCTYPE svg PUBLIC "-//W3C//DTD SVG 20010904//EN"
 "http://www.w3.org/TR/2001/REC-SVG-20010904/DTD/svg10.dtd">
<svg version="1.0" xmlns="http://www.w3.org/2000/svg"
 width="1280.000000pt" height="1280.000000pt" viewBox="0 0 1280.000000 1280.000000"
 preserveAspectRatio="xMidYMid meet">
<metadata>
Created by potrace 1.15, written by Peter Selinger 2001-2017
</metadata>
<g transform="translate(0.000000,1280.000000) scale(0.100000,-0.100000)"
fill="#000000" stroke="none">
<path d="M5781 12764 c-528 -60 -984 -157 -1469 -315 -104 -34 -443 -171 -613
-248 -82 -37 -481 -251 -590 -317 -496 -298 -1066 -768 -1452 -1198 -285 -316
-646 -817 -837 -1161 -198 -355 -405 -828 -505 -1150 -96 -309 -200 -762 -249
-1085 -118 -769 -75 -1590 125 -2420 89 -368 163 -601 290 -907 109 -264 153
-355 303 -633 320 -591 838 -1251 1311 -1669 314 -278 793 -627 1120 -816 277
-160 728 -368 1024 -472 352 -124 885 -252 1296 -312 759 -111 1577 -67 2395
130 177 43 495 133 625 179 80 27 419 166 537 219 111 49 538 281 668 361 357
222 824 587 1113 870 526 515 1049 1252 1332 1880 220 488 340 857 454 1400
76 362 109 603 131 945 55 877 -125 1941 -470 2775 -202 488 -452 933 -751
1336 -501 677 -986 1136 -1716 1623 -344 229 -803 460 -1248 629 -220 83 -646
199 -987 267 -269 54 -363 68 -683 100 -186 19 -241 22 -247 12 -4 -6 -8 -33
-8 -59 0 -26 -13 -309 -30 -630 -16 -321 -43 -860 -60 -1198 -89 -1809 -112
-2288 -135 -2735 -14 -269 -25 -504 -25 -521 l0 -32 -82 -7 c-257 -20 -468
-96 -671 -243 -238 -171 -416 -469 -472 -786 -8 -49 -16 -90 -18 -92 -2 -1
-475 22 -2227 111 -383 19 -704 35 -713 35 -16 0 -17 -20 -17 -227 1 -480 74
-916 229 -1365 219 -632 495 -1084 941 -1542 429 -440 865 -736 1397 -947 404
-160 723 -243 1128 -296 199 -25 738 -26 945 0 490 60 988 212 1455 442 352
173 679 411 1004 729 432 424 720 858 934 1406 215 551 307 1023 307 1577 0
206 -1 223 -17 223 -10 0 -216 -11 -458 -25 -242 -13 -663 -36 -935 -50 -272
-14 -700 -37 -949 -50 -250 -13 -456 -23 -458 -22 -1 2 -9 55 -18 118 -21 163
-38 220 -101 346 -79 159 -183 312 -273 402 -91 91 -296 231 -434 296 -54 26
-145 59 -203 73 -83 20 -103 29 -100 41 6 21 27 159 156 1036 61 413 151 1025
201 1360 49 336 121 824 160 1085 157 1069 188 1272 192 1276 5 6 486 -83 581
-107 239 -61 833 -278 1121 -409 117 -54 483 -249 595 -318 595 -366 1085
-792 1544 -1342 207 -248 240 -293 393 -530 251 -388 432 -744 599 -1173 113
-291 239 -683 274 -854 52 -252 114 -670 141 -958 17 -173 17 -666 1 -825 -49
-476 -126 -966 -183 -1165 -79 -277 -239 -712 -377 -1032 -55 -127 -266 -528
-347 -659 -344 -557 -793 -1075 -1308 -1509 -606 -509 -1342 -900 -2212 -1174
-249 -78 -322 -97 -515 -131 -559 -98 -818 -124 -1240 -124 -289 1 -337 3
-586 32 -721 84 -1029 156 -1592 368 -314 119 -701 299 -949 443 -137 78 -503
317 -597 388 -163 124 -429 355 -590 513 -413 404 -727 799 -1000 1260 -231
388 -461 914 -622 1420 -83 264 -102 342 -158 665 -76 447 -100 712 -100 1105
1 276 4 343 28 545 64 547 127 889 217 1170 231 723 479 1247 858 1814 177
264 413 543 716 846 625 626 1240 1030 2080 1367 110 44 225 89 255 100 153
54 557 179 622 192 143 30 480 87 485 83 2 -3 11 -49 19 -103 39 -256 140
-936 190 -1274 130 -887 169 -1151 234 -1600 38 -261 92 -630 120 -820 111
-757 122 -832 117 -836 -3 -3 -56 -18 -119 -34 -147 -37 -197 -54 -289 -100
-352 -178 -644 -512 -764 -877 -15 -46 -32 -83 -37 -83 -9 0 -1974 493 -2637
661 -153 39 -237 56 -241 49 -10 -16 -58 -267 -80 -420 -70 -477 -65 -935 16
-1456 79 -515 312 -1125 611 -1604 370 -594 965 -1165 1570 -1509 352 -199
900 -409 1270 -486 570 -117 1179 -124 1783 -19 640 110 1340 419 1878 828
316 240 672 605 914 938 395 541 677 1210 787 1863 42 249 55 417 55 730 1
315 -8 445 -49 730 -23 159 -69 402 -77 411 -2 2 -616 -150 -1363 -336 -748
-187 -1364 -340 -1370 -340 -6 0 -30 53 -54 117 -110 296 -240 492 -451 681
-126 113 -216 172 -379 250 -75 36 -137 66 -138 66 -1 1 51 150 116 332 65
181 166 462 224 624 646 1802 1089 3034 1093 3039 8 9 410 -167 607 -265 594
-297 1030 -605 1486 -1049 537 -524 953 -1118 1265 -1810 168 -372 252 -620
356 -1047 132 -546 164 -808 164 -1353 1 -353 -7 -483 -44 -785 -44 -352 -212
-1018 -335 -1330 -154 -390 -382 -836 -577 -1132 -246 -372 -444 -615 -757
-929 -579 -579 -1160 -966 -1956 -1302 -220 -92 -283 -114 -520 -181 -558
-156 -853 -210 -1335 -246 -409 -30 -1017 6 -1418 86 -333 65 -785 188 -1012
274 -396 150 -882 397 -1202 611 -536 359 -947 737 -1359 1249 -362 450 -640
938 -894 1569 -104 259 -271 900 -324 1246 -47 304 -55 424 -55 815 -1 366 5
463 40 770 28 246 111 623 219 995 88 303 171 512 351 875 155 314 200 394
352 625 224 341 430 599 697 874 466 478 972 853 1539 1140 241 122 670 311
680 300 6 -8 51 -131 646 -1794 93 -258 196 -546 230 -640 112 -308 411 -1147
458 -1284 34 -99 42 -136 33 -139 -55 -18 -266 -132 -353 -191 -220 -147 -477
-430 -583 -641 -15 -30 -28 -56 -29 -57 -2 -2 -99 43 -217 98 -741 350 -2022
955 -2228 1053 -134 64 -245 115 -247 114 -1 -2 -41 -97 -88 -212 -100 -242
-166 -443 -230 -694 -89 -352 -121 -565 -137 -926 -32 -691 77 -1349 328
-1991 134 -342 400 -806 656 -1144 283 -374 642 -716 1043 -993 601 -415 1137
-643 1859 -787 208 -42 366 -60 629 -71 722 -31 1364 74 2006 327 208 82 343
147 542 262 452 259 748 480 1053 786 314 313 504 560 765 995 276 459 445
909 570 1519 104 511 100 1239 -11 1786 -59 294 -153 602 -276 905 -52 129
-96 236 -97 237 -3 3 -252 -114 -1641 -769 -489 -231 -895 -422 -901 -425 -7
-2 -39 42 -73 99 -34 57 -92 144 -128 193 -83 112 -292 322 -399 401 -44 32
-93 68 -108 79 l-27 20 137 230 c75 127 433 725 794 1330 361 605 717 1201
790 1325 73 124 137 229 141 234 15 17 345 -202 554 -368 433 -343 898 -839
1169 -1246 518 -777 839 -1619 945 -2478 59 -476 54 -1013 -15 -1487 -110
-764 -395 -1521 -842 -2235 -117 -187 -193 -294 -316 -444 -379 -462 -809
-859 -1256 -1159 -356 -240 -879 -501 -1290 -645 -426 -150 -878 -249 -1340
-294 -180 -17 -842 -18 -1005 0 -790 85 -1437 281 -2130 645 -527 277 -932
580 -1365 1023 -432 442 -723 850 -999 1403 -348 694 -533 1356 -591 2110 -13
173 -13 595 0 776 27 362 95 760 186 1090 178 639 521 1343 915 1876 189 256
596 687 862 914 216 185 638 490 718 520 11 4 35 -27 93 -127 44 -73 404 -677
801 -1343 995 -1668 909 -1518 888 -1533 -207 -149 -405 -326 -488 -436 -27
-36 -55 -64 -61 -62 -6 2 -195 141 -420 308 -566 421 -1936 1433 -1951 1442
-13 7 -173 -225 -308 -449 -177 -292 -367 -708 -455 -995 -117 -382 -195 -770
-236 -1170 -13 -131 -15 -226 -11 -465 7 -370 30 -598 98 -939 114 -575 271
-1008 537 -1476 240 -424 493 -765 802 -1083 485 -500 1203 -961 1867 -1202
342 -124 825 -233 1268 -287 170 -20 778 -17 970 5 389 46 672 102 1037 207
703 203 1504 684 2054 1234 258 258 415 453 645 799 188 283 322 531 453 841
168 393 295 898 363 1441 23 177 25 753 5 940 -93 839 -304 1509 -668 2115
-152 254 -313 492 -326 484 -19 -11 -513 -374 -1368 -1005 -421 -311 -794
-586 -830 -612 l-64 -47 -40 47 c-22 27 -81 90 -130 141 l-90 92 30 33 c17 17
154 169 305 337 150 168 472 523 714 790 242 267 565 623 718 793 153 169 282
307 286 307 16 0 387 -386 490 -510 456 -545 793 -1177 1031 -1935 77 -246
141 -579 182 -960 21 -191 17 -870 -6 -1060 -38 -316 -97 -626 -163 -854 -171
-594 -501 -1270 -848 -1736 -294 -396 -736 -834 -1135 -1127 -473 -346 -1071
-638 -1700 -829 -311 -95 -756 -165 -1204 -190 -428 -24 -1044 37 -1494 147
-567 139 -1259 454 -1782 812 -483 330 -1052 918 -1384 1429 -300 463 -571
1077 -721 1633 -32 120 -99 510 -120 700 -56 517 -30 1080 76 1630 100 518
316 1073 637 1640 132 233 324 503 518 730 104 121 451 480 465 480 4 0 124
-130 266 -288 594 -663 1614 -1791 1662 -1837 45 -44 53 -48 66 -34 14 13 9
22 -42 84 -32 39 -264 300 -517 580 -758 840 -1082 1200 -1260 1398 l-169 189
-184 -184 c-386 -384 -585 -635 -841 -1063 -108 -181 -279 -528 -380 -775 -88
-214 -216 -609 -256 -790 -194 -889 -158 -1900 95 -2715 216 -693 576 -1367
1000 -1875 173 -206 464 -505 639 -656 408 -352 875 -639 1411 -867 541 -231
940 -333 1569 -404 221 -24 802 -24 1020 0 633 72 937 145 1455 350 240 95
620 280 825 402 409 243 807 568 1140 930 390 425 600 726 845 1210 246 485
415 964 494 1395 121 663 132 1208 36 1863 -46 322 -84 482 -182 782 -174 532
-396 988 -707 1450 -175 260 -364 482 -683 797 l-148 148 -555 -612 c-305
-337 -773 -853 -1039 -1148 -266 -294 -495 -547 -509 -563 l-26 -27 65 -68
c36 -37 109 -115 163 -174 l98 -108 41 21 c23 12 85 54 137 94 52 39 455 337
895 662 1151 848 1198 883 1200 880 1 -1 61 -92 132 -202 388 -597 598 -1113
733 -1804 73 -369 95 -592 94 -941 0 -219 -5 -315 -23 -470 -106 -919 -352
-1613 -821 -2315 -360 -538 -720 -912 -1235 -1280 -451 -323 -982 -585 -1453
-719 -655 -187 -1251 -257 -1787 -211 -851 73 -1501 267 -2179 652 -240 137
-649 429 -866 620 -430 378 -845 934 -1140 1525 -261 524 -427 1131 -495 1817
-38 386 0 923 101 1406 119 566 296 1026 579 1500 85 142 260 411 272 418 5 2
89 -56 188 -130 673 -502 2110 -1563 2176 -1607 l27 -17 67 86 c101 130 214
237 392 373 l161 123 -155 262 c-86 144 -425 712 -753 1262 -328 550 -673
1127 -765 1283 -92 155 -172 282 -177 282 -15 0 -398 -251 -498 -326 -196
-148 -362 -295 -591 -524 -504 -503 -776 -877 -1082 -1490 -327 -653 -512
-1292 -583 -2015 -24 -235 -24 -775 0 -1010 67 -679 213 -1226 490 -1838 77
-170 231 -466 309 -593 98 -162 292 -447 374 -549 363 -454 852 -911 1273
-1190 747 -494 1540 -803 2375 -924 295 -43 457 -54 805 -54 451 -1 724 26
1160 114 206 41 268 57 555 146 579 178 1333 572 1776 927 575 462 1069 1027
1389 1588 344 602 573 1207 689 1823 73 385 95 629 94 1045 0 423 -26 700
-104 1100 -177 909 -634 1859 -1229 2555 -228 266 -669 683 -945 892 -88 67
-480 323 -494 323 -5 0 -35 -44 -66 -97 -47 -79 -818 -1371 -1732 -2902 -73
-123 -132 -225 -131 -226 2 -1 46 -33 98 -70 285 -204 467 -406 620 -690 24
-44 45 -82 46 -83 9 -12 102 31 2273 1054 156 74 285 133 286 132 12 -12 126
-300 169 -428 202 -588 274 -1030 263 -1630 -9 -497 -71 -883 -217 -1349 -128
-408 -316 -791 -593 -1206 -346 -517 -740 -912 -1264 -1264 -589 -396 -1153
-624 -1873 -756 -352 -65 -942 -73 -1365 -19 -357 45 -780 154 -1116 286 -441
173 -987 505 -1368 832 -299 256 -621 629 -855 988 -102 157 -268 449 -327
574 -220 470 -375 1040 -425 1563 -21 213 -15 737 10 941 48 392 139 770 268
1120 43 116 135 339 143 348 1 1 420 -195 931 -436 1638 -774 1744 -823 1753
-818 5 4 30 45 56 93 99 183 179 283 375 468 152 144 245 206 465 310 l135 64
-39 108 c-116 322 -924 2575 -1135 3162 -135 376 -247 685 -249 687 -11 12
-495 -201 -742 -326 -669 -339 -1260 -800 -1756 -1370 -460 -529 -779 -1055
-1068 -1764 -129 -315 -304 -982 -355 -1353 -62 -447 -62 -1099 -1 -1593 35
-274 171 -854 271 -1150 104 -307 323 -783 494 -1075 423 -722 938 -1293 1620
-1797 482 -356 1170 -702 1714 -863 702 -207 1147 -275 1796 -275 588 0 900
40 1500 190 485 122 777 232 1255 475 249 127 360 191 550 318 601 400 1059
837 1505 1432 288 385 543 854 764 1402 108 269 261 852 325 1233 41 246 53
406 58 773 11 728 -59 1212 -283 1957 -124 410 -412 1018 -672 1415 -302 463
-662 878 -1072 1236 -526 459 -1023 760 -1788 1080 -79 33 -146 58 -148 56 -6
-5 -140 -378 -616 -1702 -306 -854 -390 -1086 -732 -2042 -69 -193 -126 -356
-126 -360 0 -5 17 -15 38 -22 87 -30 304 -144 385 -202 111 -79 307 -281 380
-391 73 -110 118 -202 187 -381 31 -81 59 -150 62 -152 3 -3 618 148 1368 335
750 187 1364 339 1366 338 7 -8 56 -270 73 -393 31 -218 41 -375 41 -644 0
-646 -106 -1164 -362 -1764 -278 -655 -727 -1236 -1323 -1712 -548 -437 -1273
-761 -1970 -879 -279 -47 -465 -59 -825 -53 -616 10 -1016 89 -1580 312 -294
116 -511 229 -785 410 -565 373 -1066 907 -1406 1499 -181 317 -358 761 -448
1121 -83 333 -112 573 -118 975 -6 401 12 620 83 992 l26 138 27 -6 c14 -4
483 -121 1041 -261 1494 -375 1812 -454 1817 -450 2 3 13 37 24 78 93 326 317
619 632 823 146 95 289 153 480 192 69 14 87 22 87 36 0 9 -29 212 -64 450
-99 664 -110 734 -196 1323 -44 303 -94 641 -110 753 -17 111 -43 294 -60 407
-16 113 -43 296 -60 408 -16 111 -68 468 -116 792 -47 325 -88 592 -90 594 -5
5 -289 -43 -504 -86 -388 -77 -1089 -339 -1550 -580 -526 -275 -978 -604
-1414 -1033 -421 -413 -715 -782 -999 -1252 -237 -392 -471 -928 -644 -1473
-73 -232 -85 -277 -128 -520 -59 -329 -60 -337 -95 -650 -54 -483 -39 -949 51
-1555 26 -179 64 -389 95 -527 56 -253 286 -886 434 -1200 159 -335 391 -729
595 -1012 382 -530 994 -1118 1530 -1469 409 -269 726 -434 1170 -612 387
-154 768 -275 1011 -320 611 -111 978 -147 1428 -137 365 8 629 35 1084 113
295 50 371 68 621 149 290 93 327 106 621 226 607 248 1149 578 1650 1003 297
252 691 669 926 981 211 279 469 711 639 1067 103 218 263 632 353 920 81 253
96 316 136 540 58 322 60 337 93 613 26 215 28 255 28 610 -1 352 -3 397 -28
610 -77 640 -125 877 -262 1290 -286 866 -661 1550 -1189 2171 -228 268 -649
671 -955 913 -274 217 -781 523 -1136 684 -403 184 -936 376 -1221 441 -125
28 -562 101 -568 95 -7 -6 -39 -209 -95 -594 -28 -187 -89 -601 -136 -920
-182 -1232 -219 -1480 -311 -2105 -52 -355 -115 -784 -140 -954 -25 -169 -43
-310 -41 -312 2 -3 33 -9 68 -15 146 -22 309 -93 486 -211 194 -128 326 -282
461 -538 62 -115 88 -206 107 -369 8 -68 17 -126 20 -129 3 -3 234 7 513 22
1379 75 2288 122 2296 118 13 -7 -1 -445 -19 -593 -66 -544 -222 -1056 -469
-1534 -352 -683 -1040 -1361 -1721 -1695 -508 -249 -999 -394 -1525 -451 -176
-19 -625 -16 -800 5 -403 49 -743 134 -1120 283 -206 81 -492 221 -630 308
-640 405 -1181 991 -1485 1610 -298 606 -446 1189 -462 1819 l-6 249 144 -6
c79 -4 589 -29 1134 -57 545 -27 1132 -57 1305 -65 173 -9 321 -18 328 -20 8
-3 12 -32 12 -97 0 -104 15 -187 55 -304 93 -272 231 -464 433 -602 174 -119
349 -188 559 -222 l72 -12 -5 -46 c-4 -44 -24 -465 -24 -511 0 -20 6 -21 111
-21 l111 0 -6 73 c-13 141 -26 360 -23 364 2 2 57 10 123 18 167 21 223 37
351 101 159 79 315 185 403 273 154 155 310 430 359 631 23 98 28 109 46 105
38 -9 715 -108 2202 -324 106 -15 196 -30 199 -34 7 -7 -38 -266 -67 -382 -86
-345 -284 -802 -470 -1086 -123 -187 -325 -442 -468 -592 -232 -242 -605 -534
-870 -682 -388 -216 -801 -363 -1221 -434 -289 -50 -367 -56 -655 -55 -285 0
-402 10 -705 60 -872 144 -1707 638 -2274 1345 -223 279 -321 430 -456 704
-160 326 -263 627 -330 964 -26 136 -26 159 3 166 42 10 2226 325 2252 325 6
0 28 -66 48 -147 88 -349 300 -646 610 -857 96 -65 270 -149 368 -177 43 -12
79 -28 79 -33 0 -6 -32 -135 -70 -286 -38 -151 -66 -278 -62 -282 4 -4 64 -18
132 -30 110 -20 158 -23 390 -23 231 0 281 3 390 23 68 12 128 26 133 31 4 4
-15 99 -43 211 -28 111 -49 207 -48 212 2 5 62 32 133 59 322 123 516 257 711
491 57 69 174 244 174 262 0 2 22 51 50 109 l49 106 83 -30 c46 -17 234 -84
418 -149 316 -112 1144 -407 1220 -435 20 -7 34 -19 32 -26 -7 -32 -110 -265
-173 -390 -181 -364 -334 -574 -634 -875 -290 -291 -524 -463 -854 -627 -395
-198 -715 -311 -1033 -366 -345 -60 -900 -54 -1281 15 -271 48 -600 165 -931
331 -373 187 -615 362 -897 650 -222 226 -363 403 -489 613 -106 176 -328 646
-312 661 14 14 1591 571 1602 567 4 -2 46 -79 94 -173 47 -93 109 -201 138
-240 28 -38 119 -138 202 -221 150 -149 251 -227 419 -319 l54 -30 -127 -265
c-70 -146 -124 -269 -120 -273 14 -16 214 -88 365 -131 258 -75 397 -96 631
-96 275 0 477 26 703 91 116 33 371 124 381 136 4 4 -35 98 -87 207 -51 109
-92 200 -91 201 2 1 37 21 78 45 282 163 470 330 643 575 39 55 72 101 73 103
1 2 1076 -640 1092 -653 5 -4 -77 -136 -142 -225 -124 -174 -356 -419 -531
-565 -414 -343 -925 -583 -1473 -694 -759 -154 -1594 -1 -2297 422 -379 227
-731 565 -983 945 -41 61 -73 114 -71 116 2 2 216 131 474 286 259 155 473
284 477 286 4 3 61 -67 126 -153 117 -154 244 -288 349 -367 l52 -39 -22 -31
c-12 -17 -86 -121 -166 -230 -79 -110 -144 -206 -145 -215 -3 -50 502 -320
772 -412 363 -125 813 -156 1276 -88 272 39 408 81 681 209 175 82 485 266
485 289 0 5 -8 19 -19 32 -37 48 -221 321 -221 329 0 4 21 25 48 46 26 22 89
76 140 122 l92 84 33 -28 c86 -72 467 -418 467 -423 0 -12 -223 -226 -305
-292 -268 -217 -690 -438 -1010 -531 -280 -81 -500 -112 -815 -112 -295 -1
-516 25 -790 94 -180 45 -279 83 -505 195 -326 161 -568 330 -780 545 l-100
101 36 32 c19 18 93 82 165 144 71 61 151 134 179 162 43 45 48 53 34 66 -13
13 -21 9 -74 -32 -33 -26 -142 -118 -242 -206 l-182 -159 72 -81 c306 -339
837 -665 1307 -802 308 -89 552 -119 915 -112 330 6 507 32 825 117 257 70
683 289 944 488 114 86 258 216 332 299 41 46 74 87 74 91 0 5 -48 51 -107
103 -59 52 -190 169 -291 261 l-185 168 -101 -98 c-56 -53 -136 -126 -179
-161 -42 -35 -77 -65 -77 -68 0 -8 89 -144 155 -238 39 -55 75 -106 79 -112 9
-16 -104 -90 -289 -191 -400 -219 -767 -312 -1226 -312 -530 0 -933 117 -1431
417 -60 35 -108 67 -108 71 0 4 50 77 111 162 61 85 137 194 169 241 l59 86
-47 31 c-136 88 -278 238 -449 474 l-84 116 -132 -78 c-589 -349 -922 -553
-919 -563 7 -28 128 -220 197 -310 153 -205 375 -433 580 -597 190 -151 495
-328 760 -440 294 -125 673 -222 980 -251 250 -23 675 -2 920 47 516 102 1048
341 1420 639 321 256 589 562 768 876 l26 46 -596 356 -595 356 -65 -97 c-154
-230 -307 -380 -552 -541 -51 -33 -124 -78 -162 -99 -38 -20 -69 -41 -69 -47
0 -5 40 -97 89 -203 78 -168 87 -193 73 -201 -34 -18 -320 -111 -417 -136
-185 -48 -274 -57 -515 -57 -240 0 -328 8 -510 49 -107 23 -480 139 -480 148
0 3 57 124 126 271 69 146 124 267 122 268 -2 2 -38 21 -81 44 -358 191 -648
505 -809 877 -29 67 -53 109 -61 108 -7 -2 -134 -46 -282 -99 -149 -52 -484
-171 -745 -264 -561 -199 -672 -239 -678 -245 -8 -8 113 -296 190 -450 209
-419 418 -698 755 -1007 178 -164 247 -219 418 -333 373 -249 892 -469 1295
-549 243 -49 362 -59 690 -59 470 0 744 38 1075 148 363 121 696 278 980 464
353 230 756 646 994 1026 108 172 377 743 358 761 -4 4 -692 252 -1437 516
-217 77 -403 141 -413 142 -13 1 -28 -25 -60 -104 -119 -289 -312 -529 -564
-698 -90 -61 -239 -133 -398 -192 -77 -29 -141 -53 -143 -54 -1 -2 21 -96 49
-210 28 -114 49 -210 46 -213 -11 -11 -134 -32 -252 -44 -146 -14 -390 -7
-536 16 -58 10 -111 20 -117 24 -8 5 10 94 58 290 39 156 70 285 70 286 0 2
-15 7 -32 10 -69 15 -216 69 -293 107 -134 68 -253 156 -376 278 -195 195
-313 398 -375 649 -19 75 -34 144 -34 154 0 10 -7 20 -15 23 -8 3 -233 -26
-500 -65 -568 -83 -1875 -271 -1886 -271 -9 0 -10 4 27 -200 72 -400 182 -718
383 -1105 93 -180 137 -250 259 -416 302 -413 654 -748 1084 -1030 149 -97
490 -267 688 -342 377 -144 762 -223 1198 -247 447 -24 1058 61 1469 204 214
75 531 222 723 335 114 68 362 247 500 361 258 214 579 582 789 905 78 119
247 453 307 605 100 255 178 527 214 750 11 69 22 137 25 153 2 15 2 27 -2 27
-3 0 -202 29 -442 66 -240 36 -699 103 -1021 150 -322 46 -695 101 -829 120
-186 27 -246 33 -251 24 -4 -7 -11 -39 -14 -70 -11 -100 -45 -201 -103 -310
-133 -251 -247 -385 -437 -512 -227 -152 -346 -199 -565 -223 -73 -8 -136 -17
-139 -20 -3 -3 0 -92 6 -198 17 -264 21 -237 -39 -237 l-51 0 7 158 c4 86 10
207 14 267 l6 110 125 7 c335 18 704 222 880 486 100 149 188 366 214 531 9
52 17 95 19 97 2 2 79 -1 173 -6 355 -20 2060 -102 2384 -116 193 -7 197 -8
193 -42 -62 -530 -92 -689 -178 -947 -178 -535 -461 -1036 -821 -1450 -254
-293 -624 -587 -1022 -812 -345 -195 -800 -371 -1109 -428 -588 -109 -1083
-109 -1658 1 -629 121 -1357 498 -1885 976 -321 292 -657 755 -871 1203 -140
294 -252 611 -299 845 -38 190 -94 629 -81 641 6 5 187 15 1476 79 330 17 719
37 864 45 146 8 266 13 268 12 2 -2 10 -60 18 -128 9 -68 23 -151 31 -184 37
-141 217 -438 343 -565 150 -151 428 -309 629 -358 59 -14 108 -26 109 -27 2
-1 -4 -42 -12 -92 -28 -174 -66 -485 -60 -492 8 -7 581 -8 589 -1 3 3 -6 91
-19 195 -14 105 -25 204 -25 221 l0 32 111 27 c151 36 219 60 309 105 199 100
424 292 554 473 81 112 175 296 206 406 18 62 27 80 39 77 9 -2 481 -120 1049
-261 797 -199 1032 -261 1032 -272 0 -31 -140 -433 -194 -558 -156 -357 -431
-765 -711 -1054 -256 -264 -521 -469 -858 -665 -376 -218 -1001 -418 -1427
-457 -176 -16 -669 -6 -835 16 -251 33 -622 134 -895 242 -428 169 -875 463
-1208 792 -308 306 -601 726 -765 1098 -87 199 -220 583 -206 597 9 9 1932
487 1943 483 6 -3 22 -36 34 -73 59 -173 151 -359 240 -484 61 -86 218 -247
306 -315 94 -72 254 -163 360 -205 47 -19 86 -38 86 -42 0 -3 -35 -105 -79
-225 -129 -358 -118 -323 -98 -338 49 -35 287 -95 462 -115 192 -22 549 -10
745 26 118 21 320 84 320 100 0 7 -32 102 -71 211 -39 109 -67 199 -62 200 4
2 69 33 143 69 212 103 312 175 485 348 157 158 235 257 306 391 23 44 43 81
44 83 5 6 1398 -657 1413 -673 7 -7 -61 -144 -124 -253 -235 -402 -597 -780
-1049 -1097 -163 -114 -605 -327 -806 -388 -139 -43 -398 -105 -531 -128 -156
-27 -601 -38 -825 -20 -444 36 -843 154 -1288 379 -433 219 -930 677 -1236
1136 -83 125 -208 360 -197 371 7 8 763 370 1057 506 118 55 217 96 221 92 3
-4 32 -51 63 -104 144 -246 343 -462 562 -611 50 -34 92 -63 94 -64 5 -4 -83
-155 -207 -358 -51 -83 -92 -153 -92 -156 0 -10 176 -104 280 -150 456 -202
926 -261 1450 -184 298 44 469 97 725 224 99 49 186 93 193 98 14 9 -8 54
-105 207 -27 44 -62 102 -76 129 -33 62 -36 57 122 170 137 97 256 207 341
316 35 44 67 80 70 80 4 0 47 -30 96 -67 49 -37 222 -166 384 -286 162 -121
297 -221 299 -223 14 -13 -200 -266 -315 -373 -289 -270 -635 -484 -1055 -652
-358 -142 -644 -194 -1069 -193 -328 1 -624 39 -860 110 -116 35 -409 154
-558 227 -141 68 -399 235 -547 353 -180 144 -382 352 -473 487 -23 34 -23 39
-9 50 9 7 90 66 179 132 90 66 232 171 316 233 85 63 155 112 156 110 1 -1 59
-66 129 -144 l125 -141 -156 -167 c-86 -92 -175 -188 -197 -213 l-40 -46 60
-55 c126 -115 336 -268 476 -345 136 -75 366 -169 574 -233 430 -133 920 -154
1391 -59 460 93 907 308 1253 604 47 40 88 77 89 82 4 11 -158 196 -251 288
-44 43 -70 62 -81 58 -9 -4 -16 -11 -16 -17 0 -11 80 -107 192 -231 43 -47 78
-88 78 -91 0 -7 -200 -165 -293 -232 -155 -110 -513 -276 -757 -350 -281 -84
-472 -111 -795 -110 -283 0 -432 18 -669 78 -233 60 -511 167 -680 263 -145
82 -486 328 -486 351 0 4 57 68 127 142 69 74 157 171 194 215 l69 80 -89 90
c-48 49 -119 126 -156 170 -37 44 -71 84 -75 89 -6 6 -624 -437 -738 -530
l-23 -19 47 -70 c145 -218 358 -425 655 -636 269 -191 524 -317 899 -444 293
-100 501 -129 915 -129 257 -1 323 2 465 22 370 51 595 124 999 326 278 140
533 320 749 530 131 127 199 206 282 326 l51 75 -28 23 c-28 22 -658 490 -784
582 l-66 48 -64 -86 c-93 -128 -203 -232 -391 -371 l-167 -123 21 -42 c11 -22
61 -108 110 -189 50 -82 88 -150 86 -153 -2 -2 -60 -31 -129 -65 -243 -121
-438 -184 -709 -230 -118 -20 -168 -23 -395 -23 -219 0 -283 4 -405 23 -292
45 -436 90 -703 219 -119 57 -156 80 -152 91 3 8 57 98 120 200 62 102 126
212 142 245 28 58 28 58 8 72 -11 8 -69 49 -130 91 -135 94 -325 281 -415 410
-36 51 -97 146 -137 210 -42 69 -77 117 -85 115 -7 -2 -119 -53 -248 -114
-442 -209 -1114 -529 -1118 -532 -6 -7 135 -292 186 -374 304 -488 853 -996
1333 -1232 436 -214 848 -333 1279 -371 150 -13 558 -7 705 11 322 38 625 115
906 231 181 74 444 210 577 298 476 314 935 819 1152 1266 37 77 70 147 73
155 4 12 -86 59 -392 205 -218 104 -558 267 -755 362 l-360 172 -51 -92 c-28
-51 -67 -117 -86 -147 -106 -164 -309 -369 -479 -482 -97 -66 -276 -161 -378
-201 -37 -15 -42 -20 -36 -40 3 -12 33 -96 65 -185 78 -219 78 -211 4 -235
-332 -104 -826 -113 -1184 -23 -146 37 -153 41 -145 73 4 16 37 111 74 213 87
241 113 320 107 327 -3 2 -53 24 -111 48 -190 77 -368 196 -511 339 -177 178
-270 335 -385 646 -23 63 -43 116 -44 118 -4 3 -2048 -507 -2054 -513 -12 -11
96 -355 168 -535 94 -237 184 -406 346 -650 415 -629 1019 -1122 1704 -1393
274 -108 624 -206 880 -246 142 -22 437 -31 686 -21 271 11 452 34 644 80 150
36 466 137 605 192 479 190 1003 557 1342 940 330 373 570 765 723 1179 66
179 147 446 138 455 -2 1 -492 125 -1088 274 -597 149 -1092 273 -1101 276
-12 3 -19 -4 -23 -23 -75 -313 -273 -609 -543 -812 -176 -132 -332 -203 -553
-251 -58 -13 -109 -27 -114 -31 -5 -4 3 -98 18 -220 15 -116 24 -215 20 -218
-7 -7 -460 -8 -467 -1 -3 3 1 46 9 95 20 134 65 488 62 491 -2 1 -44 9 -95 18
-152 26 -296 90 -483 213 -167 111 -256 210 -394 439 -103 172 -135 278 -162
537 l-5 57 -57 0 c-31 0 -178 -7 -327 -15 -148 -8 -634 -33 -1080 -55 -445
-22 -886 -45 -980 -50 -93 -5 -194 -10 -222 -10 l-53 0 0 -37 c0 -128 73 -633
115 -803 73 -291 235 -689 396 -973 128 -226 335 -521 496 -708 313 -361 792
-717 1288 -955 349 -168 683 -277 990 -323 354 -53 387 -56 730 -56 285 1 352
4 495 23 375 51 510 79 730 153 751 250 1441 715 1884 1269 120 151 302 418
397 585 170 298 338 712 413 1015 40 166 106 645 106 775 l0 35 -47 0 c-27 0
-221 9 -433 20 -212 11 -815 40 -1340 65 -525 25 -964 46 -974 48 -16 2 -19
13 -23 82 -18 371 -225 743 -521 937 -149 97 -352 176 -511 200 -42 6 -79 14
-83 17 -4 4 -3 83 2 176 12 213 50 970 90 1780 44 889 65 1327 105 2125 19
388 37 755 40 815 3 61 8 138 11 173 6 62 6 63 32 58 15 -3 137 -17 271 -31
436 -46 868 -137 1353 -286 317 -97 771 -302 1168 -527 247 -139 518 -329 885
-621 133 -107 244 -207 425 -390 319 -319 547 -600 833 -1021 157 -233 239
-376 382 -665 221 -447 333 -751 454 -1235 220 -877 261 -1590 140 -2425 -83
-567 -219 -1079 -414 -1550 -102 -244 -145 -336 -275 -580 -198 -371 -367
-621 -713 -1055 -191 -238 -583 -630 -827 -826 -617 -494 -1154 -810 -1795
-1054 -754 -286 -1744 -450 -2484 -411 -437 24 -869 86 -1271 182 -583 140
-1013 308 -1585 618 -279 152 -622 388 -980 675 -195 156 -619 578 -779 776
-486 600 -767 1061 -1028 1689 -87 209 -131 336 -204 591 -203 709 -298 1429
-266 2025 32 582 127 1125 297 1690 64 212 88 279 209 568 71 171 117 266 256
527 188 354 353 598 709 1045 185 233 568 616 816 817 591 477 1036 747 1664
1008 282 117 478 181 791 260 322 81 672 147 925 175 127 13 253 27 282 30
l51 6 6 -53 c3 -29 17 -280 31 -558 14 -278 32 -633 40 -790 20 -384 58 -1134
95 -1875 17 -335 44 -857 60 -1160 16 -302 28 -550 27 -551 -1 -1 -56 -10
-122 -18 -66 -9 -151 -26 -190 -37 -137 -41 -401 -195 -528 -309 -176 -158
-376 -512 -412 -728 -6 -40 -9 -43 -33 -38 -29 6 -712 108 -1377 205 -1205
177 -1519 221 -1526 214 -4 -4 -16 -80 -26 -168 -25 -221 -25 -735 0 -945 63
-521 199 -1002 395 -1395 119 -240 339 -607 456 -760 172 -227 453 -519 681
-709 215 -179 584 -412 890 -563 993 -487 2211 -557 3290 -189 336 114 573
232 998 497 325 203 686 532 973 889 210 262 496 755 623 1075 273 685 365
1393 280 2151 -6 56 -15 107 -19 113 -5 9 -126 -6 -451 -54 -353 -52 -1465
-214 -2217 -322 -62 -9 -115 -13 -118 -10 -3 3 -18 56 -34 119 -39 152 -62
216 -115 315 -70 132 -159 248 -289 378 -177 176 -338 279 -549 350 -99 33
-102 35 -99 62 4 31 1078 4330 1090 4361 8 23 -22 30 332 -80 190 -59 551
-201 758 -299 345 -162 869 -483 1137 -695 383 -304 819 -749 1126 -1149 162
-210 459 -710 613 -1030 284 -588 502 -1337 560 -1920 105 -1045 -27 -1977
-412 -2925 -246 -604 -614 -1215 -1016 -1685 -124 -144 -460 -481 -606 -606
-231 -198 -392 -323 -541 -421 -463 -304 -883 -521 -1374 -710 -66 -26 -514
-165 -600 -187 -143 -36 -558 -119 -650 -130 -801 -97 -1630 -47 -2310 140
-598 164 -1134 389 -1619 681 -199 120 -503 326 -629 426 -315 252 -629 557
-875 850 -205 244 -261 319 -399 532 -345 533 -584 1034 -757 1588 -88 280
-110 364 -170 659 -113 545 -136 1199 -66 1808 88 757 343 1544 718 2215 328
587 604 953 1054 1396 382 377 659 593 1099 857 520 312 988 515 1597 691 28
8 52 13 52 11 0 -2 239 -956 530 -2120 292 -1164 530 -2122 530 -2128 0 -7
-48 -30 -108 -51 -151 -56 -346 -155 -444 -227 -103 -76 -262 -237 -347 -349
-40 -54 -92 -144 -140 -243 -71 -147 -78 -157 -100 -152 -13 4 -173 60 -355
125 -295 106 -866 309 -1601 570 -137 49 -378 134 -534 190 -156 55 -288 97
-292 93 -19 -21 -148 -516 -193 -743 -82 -410 -96 -868 -41 -1385 37 -353 183
-901 335 -1255 274 -644 731 -1265 1245 -1694 425 -354 837 -600 1342 -800
192 -76 569 -180 853 -235 377 -74 907 -87 1372 -36 352 40 904 184 1218 318
1014 434 1789 1141 2307 2107 126 234 260 560 322 781 61 219 117 448 145 594
90 473 82 1178 -20 1649 -52 239 -168 681 -184 699 -4 5 -234 -73 -511 -171
-277 -99 -619 -221 -759 -270 -140 -50 -509 -181 -819 -291 -310 -111 -565
-201 -566 -201 -2 0 -31 57 -65 128 -99 205 -191 334 -360 502 -147 148 -277
249 -402 315 -38 20 -68 40 -68 45 0 4 48 109 106 232 59 122 375 790 704
1483 795 1678 871 1835 883 1835 16 0 292 -151 462 -253 265 -159 512 -333
745 -526 148 -122 558 -532 681 -681 516 -622 877 -1289 1134 -2095 94 -297
170 -676 212 -1065 25 -232 25 -832 0 -1077 -64 -630 -164 -1033 -402 -1623
-105 -259 -134 -324 -241 -523 -333 -620 -680 -1079 -1143 -1511 -337 -314
-637 -537 -1036 -771 -305 -179 -743 -381 -1050 -485 -488 -165 -815 -237
-1305 -287 -243 -24 -853 -24 -1090 0 -423 44 -811 120 -1111 218 -1022 332
-1892 870 -2537 1569 -491 531 -847 1090 -1130 1770 -224 540 -339 987 -404
1575 -30 266 -33 876 -5 1130 59 535 141 901 301 1343 192 528 388 913 699
1375 205 305 407 545 703 838 339 333 637 565 1059 821 155 94 455 258 471
258 12 0 122 -229 869 -1810 504 -1067 724 -1529 751 -1581 l13 -27 -105 -63
c-165 -99 -269 -182 -414 -328 -114 -114 -246 -277 -263 -324 -7 -17 -45 5
-802 457 -1715 1024 -1763 1052 -1768 1045 -2 -2 -56 -101 -121 -219 -224
-413 -432 -1005 -510 -1450 -53 -304 -67 -485 -67 -840 0 -763 88 -1203 390
-1970 123 -313 406 -792 640 -1083 298 -370 741 -788 1078 -1019 447 -304 758
-459 1278 -633 512 -173 906 -235 1481 -235 769 0 1224 89 1974 385 174 69
237 100 484 239 425 240 731 479 1106 863 371 380 654 770 878 1214 167 330
361 894 431 1249 65 334 85 597 78 1037 -11 685 -85 1062 -338 1723 -43 113
-93 237 -111 277 -50 109 -242 462 -251 463 -9 0 -331 -191 -1649 -978 -416
-249 -761 -452 -766 -452 -5 0 -56 62 -113 138 -122 163 -192 238 -317 339
-82 67 -91 78 -79 92 8 9 452 606 987 1326 535 721 980 1318 989 1327 15 15
26 9 160 -98 366 -290 654 -592 968 -1014 220 -295 323 -461 460 -740 240
-487 313 -679 421 -1105 135 -531 182 -883 182 -1359 0 -527 -60 -963 -209
-1511 -101 -369 -162 -526 -391 -991 -106 -217 -162 -316 -245 -440 -489 -725
-935 -1173 -1661 -1668 -294 -199 -951 -507 -1284 -601 -615 -173 -992 -237
-1540 -260 -635 -26 -1580 149 -2180 405 -80 34 -271 123 -425 199 -217 106
-315 161 -437 244 -554 374 -920 695 -1247 1096 -333 408 -499 655 -674 1008
-246 496 -329 717 -437 1158 -133 547 -170 840 -170 1349 0 405 29 679 111
1071 87 408 173 701 285 963 108 255 332 700 410 817 421 627 756 1005 1219
1374 139 111 151 118 166 103 16 -17 1869 -2516 1883 -2540 5 -8 -5 -22 -26
-39 -18 -15 -80 -73 -138 -130 l-106 -103 -229 207 c-127 114 -567 513 -980
887 -974 885 -987 896 -995 896 -8 0 -251 -290 -331 -395 -111 -144 -326 -490
-451 -725 -203 -379 -402 -955 -482 -1396 -112 -623 -125 -1078 -46 -1694 40
-314 85 -525 176 -826 154 -514 371 -963 698 -1449 303 -451 749 -907 1211
-1241 239 -173 547 -358 790 -475 684 -328 1410 -500 2181 -516 528 -11 1087
62 1579 208 214 63 273 83 518 181 284 113 514 233 827 431 346 219 536 373
856 692 302 302 457 486 636 760 245 373 386 637 516 965 185 470 290 881 347
1365 53 455 47 846 -21 1329 -54 387 -126 686 -247 1026 -153 428 -312 742
-602 1185 -88 134 -146 211 -357 467 l-97 117 -208 -187 c-547 -491 -1842
-1664 -1872 -1695 -31 -33 -38 -67 -13 -67 19 0 145 110 693 606 755 683 1340
1209 1371 1233 l25 20 143 -172 c212 -255 447 -615 604 -927 255 -505 413
-996 500 -1560 48 -310 59 -457 59 -760 1 -299 -8 -414 -59 -770 -94 -666
-307 -1275 -647 -1850 -294 -497 -600 -869 -1037 -1261 -308 -277 -747 -570
-1145 -764 -555 -272 -1197 -446 -1865 -506 -180 -16 -613 -17 -775 -1 -611
60 -1007 150 -1500 339 -334 128 -573 249 -907 461 -346 220 -553 387 -854
687 -303 303 -472 509 -681 835 -217 337 -330 553 -460 880 -125 312 -222 633
-273 900 -79 416 -104 656 -104 1005 0 281 8 398 45 684 63 486 161 857 354
1337 81 200 102 243 218 454 178 322 354 585 555 828 119 142 137 161 151 149
49 -41 608 -546 1176 -1062 956 -868 997 -905 1005 -905 12 0 361 323 358 331
-7 17 -1964 2649 -1970 2649 -4 0 -98 -73 -210 -162 -232 -185 -535 -480 -712
-693 -144 -173 -340 -434 -468 -625 -115 -171 -267 -464 -427 -825 -111 -249
-140 -336 -221 -640 -157 -595 -219 -1066 -207 -1579 6 -278 16 -397 53 -656
51 -361 127 -687 240 -1045 95 -298 387 -905 562 -1167 437 -653 829 -1067
1427 -1505 300 -220 396 -279 700 -429 520 -257 689 -320 1150 -434 419 -103
695 -148 1045 -170 482 -30 1034 15 1526 125 184 41 506 130 636 174 298 103
881 383 1101 529 743 494 1231 980 1716 1706 117 175 261 452 406 776 116 259
146 338 200 529 268 948 319 1669 180 2531 -47 289 -161 746 -244 979 -113
315 -378 858 -534 1092 -387 580 -761 992 -1261 1388 -71 56 -132 100 -137 99
-4 -2 -467 -622 -1029 -1378 -562 -756 -1026 -1380 -1031 -1386 -6 -7 32 -45
115 -114 138 -114 210 -192 354 -387 53 -73 100 -132 103 -133 9 0 531 309
1255 742 729 437 1152 688 1158 688 11 0 201 -358 242 -457 197 -466 323 -882
383 -1258 34 -220 46 -404 45 -740 -1 -704 -78 -1116 -340 -1803 -92 -241
-116 -293 -243 -520 -270 -488 -548 -844 -944 -1213 -388 -363 -763 -627
-1172 -828 -227 -112 -625 -262 -915 -345 -675 -193 -1576 -208 -2330 -40
-148 33 -530 160 -780 258 -373 147 -855 433 -1160 689 -688 576 -1166 1209
-1460 1932 -82 202 -218 624 -257 795 -86 383 -107 597 -108 1065 0 719 89
1160 381 1892 47 119 112 256 180 380 58 106 108 193 110 193 6 0 528 -311
1504 -895 903 -540 1040 -620 1049 -609 4 5 35 50 69 99 159 235 425 477 662
604 124 66 121 43 37 226 -66 142 -363 772 -1312 2775 -152 322 -279 587 -282
590 -13 14 -534 -277 -761 -426 -618 -405 -1179 -964 -1594 -1589 -208 -312
-425 -722 -569 -1075 -71 -174 -223 -618 -259 -760 -56 -214 -125 -652 -152
-950 -18 -208 -15 -712 6 -940 29 -323 98 -745 157 -960 91 -331 280 -834 419
-1111 555 -1107 1333 -1922 2404 -2519 244 -136 627 -308 891 -400 120 -42
452 -147 520 -164 79 -20 403 -81 530 -100 721 -107 1493 -73 2247 100 351 80
987 327 1351 525 572 310 1011 638 1422 1061 420 431 783 947 1047 1487 205
421 404 979 476 1336 151 745 168 1407 56 2135 -54 350 -108 574 -216 888
-488 1429 -1387 2531 -2649 3248 -202 116 -406 220 -413 213 -12 -12 -1739
-3660 -1734 -3664 2 -1 40 -21 85 -44 171 -89 352 -234 501 -404 139 -158 207
-265 303 -477 24 -52 44 -97 45 -98 2 -4 369 124 909 316 1394 496 1710 608
1734 614 27 6 178 -580 221 -857 34 -228 43 -391 37 -710 -8 -428 -37 -648
-138 -1050 -175 -693 -478 -1280 -953 -1845 -524 -623 -1364 -1176 -2106
-1385 -332 -93 -569 -146 -820 -182 -161 -22 -814 -26 -1010 -5 -288 31 -699
122 -1000 221 -531 176 -1082 494 -1545 894 -420 362 -826 893 -1080 1412
-167 343 -229 517 -335 939 -108 426 -125 580 -125 1081 1 391 13 541 66 810
48 237 167 675 184 675 17 0 97 -28 1490 -525 734 -262 1284 -455 1297 -455 5
0 19 24 31 53 101 245 193 386 361 553 146 146 236 213 376 283 93 47 347 151
368 151 6 0 13 4 16 9 6 9 -1076 4357 -1087 4367 -2 3 -81 -18 -173 -46 -737
-224 -1231 -457 -1867 -882 -554 -370 -1194 -1022 -1569 -1598 -155 -238 -393
-667 -484 -870 -232 -524 -344 -874 -464 -1455 -67 -325 -95 -711 -87 -1200
11 -639 79 -1065 266 -1665 89 -287 93 -298 187 -525 234 -566 588 -1160 939
-1580 250 -298 508 -554 824 -817 315 -263 657 -485 1113 -722 170 -89 220
-111 508 -231 498 -206 1116 -361 1645 -412 265 -25 984 -25 1220 0 988 107
1894 430 2760 985 179 116 457 322 615 458 371 320 806 804 1036 1154 303 462
499 836 697 1335 43 108 176 531 211 670 53 209 118 546 136 705 62 539 49
1277 -30 1730 -64 366 -131 624 -270 1042 -39 115 -218 544 -277 661 -192 385
-477 844 -687 1107 -189 237 -417 484 -621 673 -179 167 -463 404 -585 489
-479 333 -1058 639 -1538 812 -121 43 -594 187 -599 182 -5 -5 -1133 -4510
-1130 -4512 1 -1 58 -20 127 -43 310 -104 570 -308 766 -602 101 -151 163
-308 205 -516 8 -36 18 -63 25 -63 11 0 921 131 1949 280 658 95 828 120 830
120 6 0 27 -235 35 -394 8 -185 -1 -496 -20 -666 -47 -414 -157 -836 -313
-1199 -99 -234 -361 -694 -503 -888 -223 -303 -644 -711 -951 -924 -137 -95
-436 -270 -595 -349 -742 -368 -1596 -509 -2421 -399 -719 95 -1241 297 -1921
743 -274 180 -564 449 -843 785 -286 344 -578 870 -730 1316 -171 501 -252
1072 -224 1580 12 214 29 376 39 386 4 4 104 -8 222 -27 219 -33 307 -46 1210
-179 520 -77 1480 -215 1491 -215 3 0 11 32 18 72 25 152 95 310 221 500 117
179 276 313 521 442 122 64 237 98 398 115 58 6 107 14 110 16 2 3 -3 152 -12
333 -45 872 -89 1725 -107 2087 -11 220 -29 571 -40 780 -11 209 -35 706 -55
1105 -20 399 -38 740 -41 758 -3 22 -10 32 -22 31 -9 -1 -149 -16 -311 -35z
m804 -5229 c216 -38 505 -191 648 -343 116 -125 234 -345 285 -532 23 -85 26
-113 26 -270 0 -203 -12 -260 -93 -446 -123 -285 -274 -440 -562 -578 -168
-81 -271 -107 -454 -113 -172 -6 -287 12 -430 67 -362 140 -580 372 -704 748
-45 138 -54 205 -48 366 9 258 95 481 270 702 148 186 435 353 684 398 105 19
271 19 378 1z"/>
</g>
</svg>
